<?xml version="1.0" standalone="no"?>
<!DOCTYPE svg PUBLIC "-//W3C//DTD SVG 20010904//EN"
 "http://www.w3.org/TR/2001/REC-SVG-20010904/DTD/svg10.dtd">

<svg version="1.0" xmlns="http://www.w3.org/2000/svg"
 width="1080.000000pt" height="1920.000000pt" viewBox="0 0 1080.000000 1920.000000"
 preserveAspectRatio="xMidYMid meet">
<g transform="translate(0.000000,1920.000000) scale(0.100000,-0.100000)"
fill="#fff" stroke="#fff" stroke-width="100">
<path d="M8361 15075 c-17 -30 -31 -59 -31 -65 0 -5 -23 -57 -51 -115 l-51
-105 -28 15 c-35 18 -96 20 -107 2 -10 -15 -43 -32 -112 -56 -68 -24 -83 -46
-50 -75 19 -16 23 -29 21 -58 -3 -35 -5 -37 -30 -32 -19 4 -36 -1 -55 -16 -32
-25 -33 -36 -10 -62 17 -19 17 -21 0 -50 -9 -16 -17 -35 -17 -41 0 -8 -15 -11
-44 -9 -39 3 -46 1 -74 -33 -42 -52 -55 -107 -35 -157 8 -21 18 -38 22 -38 3
0 21 -13 40 -28 l33 -28 -39 -53 c-22 -28 -68 -104 -104 -169 -88 -159 -370
-551 -657 -912 -24 -30 -92 -106 -150 -167 -86 -92 -122 -122 -194 -163 -128
-73 -371 -178 -458 -199 -187 -45 -394 -143 -504 -238 -117 -101 -329 -378
-504 -658 -62 -100 -238 -429 -367 -690 -47 -93 -101 -198 -121 -233 -24 -42
-33 -67 -27 -73 10 -10 64 79 188 306 21 39 60 102 85 140 26 39 93 144 150
235 159 257 384 593 482 722 120 157 193 223 315 282 113 56 276 115 314 116
69 0 295 95 401 168 70 48 177 149 243 229 33 40 101 121 151 180 50 60 127
154 170 210 44 57 163 210 266 341 183 233 251 337 339 515 24 48 50 87 57 87
10 0 12 -6 7 -17 -4 -10 -9 -38 -10 -63 -2 -52 -67 -167 -247 -437 -100 -149
-138 -214 -110 -188 23 22 197 275 289 420 54 85 103 155 108 155 6 0 44 -21
85 -46 41 -25 96 -57 122 -70 26 -13 78 -44 115 -68 38 -24 118 -69 178 -101
96 -51 144 -84 250 -169 30 -24 58 -10 85 45 17 33 24 38 39 30 38 -21 44 -38
23 -68 -11 -15 -52 -90 -90 -166 -39 -75 -86 -158 -104 -185 -54 -77 -124
-196 -233 -392 -164 -295 -298 -600 -362 -823 l-26 -92 17 -130 c10 -71 26
-161 36 -200 69 -272 87 -407 69 -538 -8 -61 -17 -90 -28 -96 -9 -5 -79 -25
-156 -45 -77 -21 -198 -55 -269 -77 -70 -22 -134 -38 -142 -35 -8 3 -14 -1
-14 -8 0 -34 79 -34 196 0 234 68 322 77 430 42 84 -26 188 -29 264 -6 63 18
171 77 178 96 6 19 -44 15 -90 -9 l-41 -21 -133 39 -134 38 0 70 c0 82 -60
458 -94 591 -9 32 -27 109 -42 171 l-26 111 33 109 c18 59 40 126 49 148 10
22 40 94 68 160 76 180 179 373 342 645 81 135 159 268 173 296 14 28 58 100
96 160 39 59 71 116 71 126 0 19 13 22 45 9 23 -10 55 4 55 22 0 7 11 35 25
62 13 28 25 58 25 67 0 9 11 30 25 46 27 32 31 53 15 81 -5 10 -7 34 -3 54 5
31 8 35 24 27 56 -31 113 14 91 72 -11 31 -8 40 45 132 29 48 7 136 -47 186
l-29 27 82 97 c174 206 176 216 46 303 -403 271 -476 316 -603 377 -76 36
-151 66 -167 66 -22 0 -32 -9 -58 -55z m204 -60 c138 -65 294 -169 540 -361
33 -25 79 -54 103 -65 23 -10 42 -22 42 -25 0 -4 -33 -42 -73 -83 -40 -42 -91
-98 -114 -125 l-41 -49 -28 20 c-16 11 -47 29 -69 40 -38 19 -91 47 -200 110
-90 50 -419 265 -444 288 -11 11 -6 24 29 84 23 40 50 95 60 124 37 108 38
109 63 102 12 -4 72 -31 132 -60z m-297 -285 c42 -23 111 -65 152 -96 41 -30
102 -72 135 -94 33 -21 87 -57 120 -80 33 -22 94 -62 135 -87 41 -26 102 -68
135 -93 34 -26 77 -50 97 -54 69 -13 84 -66 42 -153 -16 -32 -30 -60 -32 -63
-4 -6 -64 28 -97 56 -15 13 -34 24 -41 24 -7 0 -26 11 -42 25 -17 14 -33 21
-36 16 -6 -9 33 -46 152 -141 61 -50 78 -80 46 -80 -16 0 -124 57 -134 70 -3
4 -16 10 -30 14 -19 5 -10 -8 39 -54 59 -56 63 -62 48 -77 -14 -15 -20 -13
-64 23 -26 22 -61 48 -78 59 -16 10 -40 25 -52 33 -13 8 -23 10 -23 5 0 -5 34
-35 75 -68 69 -54 146 -148 132 -162 -3 -3 -34 20 -69 52 -35 31 -84 68 -110
81 -53 27 -58 28 -58 13 0 -5 15 -16 33 -24 37 -15 126 -92 157 -135 20 -27
20 -28 -1 -89 -25 -73 -33 -75 -109 -26 -30 19 -75 44 -100 56 -25 12 -47 25
-50 28 -3 4 -43 26 -90 49 -47 24 -92 47 -100 52 -168 101 -297 168 -365 190
-98 31 -265 132 -328 197 l-38 40 16 55 c8 31 24 63 35 73 18 17 24 17 77 3
56 -15 308 -121 366 -154 46 -26 42 -8 -5 23 -40 28 -264 132 -316 148 -17 5
-22 12 -17 23 4 10 12 30 17 45 8 21 15 26 27 22 9 -4 30 -12 46 -17 17 -6 35
-14 40 -18 15 -12 135 -58 195 -76 60 -18 78 -12 29 9 -96 40 -335 151 -343
158 -51 47 227 -33 413 -118 52 -24 100 -42 105 -40 14 5 -135 77 -229 112
-38 14 -100 37 -136 51 l-66 26 15 32 c8 17 17 33 18 35 4 4 55 -15 119 -45
97 -44 149 -64 154 -58 10 9 -37 40 -219 142 -41 24 -49 32 -32 32 13 0 34 11
48 25 26 26 26 26 70 9 24 -9 49 -23 55 -30 6 -8 16 -14 22 -14 5 0 39 -14 75
-31 35 -16 66 -28 69 -26 5 6 -77 65 -139 101 -44 26 -56 36 -43 36 3 0 40
-18 83 -40z m-193 -757 c72 -36 142 -74 157 -84 14 -11 29 -19 33 -19 4 0 35
-16 68 -37 34 -20 89 -52 122 -71 116 -68 195 -123 195 -135 0 -7 -5 -19 -10
-27 -8 -13 -14 -13 -42 4 -18 11 -90 47 -159 82 -69 34 -170 89 -225 121 -54
33 -135 79 -179 103 -170 90 -192 108 -175 139 10 19 12 19 48 5 20 -9 96 -45
167 -81z"/>
<path d="M7289 11138 c-7 -13 -35 -51 -63 -86 l-51 -63 -75 6 c-49 4 -92 15
-123 31 -27 13 -54 24 -61 24 -23 0 -83 -67 -131 -147 -27 -43 -59 -94 -72
-113 l-23 -35 -123 0 c-138 -1 -352 -38 -422 -73 -46 -23 -178 -38 -301 -34
-60 2 -92 -1 -120 -14 -22 -9 -67 -20 -101 -24 -34 -4 -74 -16 -89 -26 -43
-30 -43 -30 -164 -59 -63 -15 -128 -34 -143 -42 -16 -8 -62 -23 -104 -34 -42
-10 -101 -31 -132 -45 -31 -14 -132 -52 -226 -85 -233 -80 -558 -209 -660
-262 -56 -29 -95 -56 -80 -57 18 0 376 125 505 177 233 93 395 161 454 192 33
16 89 38 125 47 36 9 73 23 81 29 23 19 165 62 260 80 47 9 127 27 179 41 52
14 129 32 170 39 42 8 99 19 126 25 28 6 118 13 200 14 141 3 157 5 260 38
108 35 113 36 280 37 94 0 208 4 255 10 47 5 121 7 165 4 44 -2 130 0 190 5
117 10 198 37 352 117 66 34 70 35 136 27 37 -5 70 -5 72 -1 12 18 -34 34
-106 38 -68 3 -83 0 -126 -23 -59 -32 -230 -102 -298 -122 -51 -16 -158 -19
-228 -8 l-38 6 27 36 c15 21 62 71 104 113 42 42 95 104 117 137 34 51 43 59
53 47 6 -8 42 -35 79 -60 38 -26 82 -67 99 -91 31 -43 63 -57 78 -33 10 16
-49 91 -94 119 -22 14 -75 46 -117 73 -41 26 -78 47 -80 47 -2 0 -10 -10 -16
-22z m-247 -203 l49 7 -57 -89 c-32 -48 -58 -89 -59 -90 -3 -6 -217 -22 -230
-17 -16 6 29 67 123 165 l43 46 42 -14 c27 -9 58 -12 89 -8z"/>
<path d="M4982 10908 c-27 -40 -66 -93 -86 -117 -42 -50 -100 -147 -158 -263
-22 -44 -54 -95 -70 -114 -17 -19 -28 -38 -24 -41 13 -13 69 53 103 122 56
111 112 204 169 280 56 75 127 195 120 202 -2 3 -27 -28 -54 -69z"/>
<path d="M8790 10777 c0 -7 5 -18 11 -24 8 -8 0 -17 -32 -35 l-44 -23 43 -3
c28 -2 53 3 68 13 26 17 32 53 12 73 -16 16 -58 15 -58 -1z"/>
<path d="M9158 10752 c-47 -21 -50 -37 -5 -27 17 4 41 6 52 5 55 -7 109 -4
112 6 2 7 -16 14 -47 18 -28 4 -56 8 -63 10 -6 2 -29 -3 -49 -12z"/>
<path d="M9398 10688 c-34 -12 -46 -44 -25 -66 22 -22 70 -19 101 6 22 17 36
20 74 16 53 -6 97 15 76 36 -15 15 -189 21 -226 8z"/>
<path d="M7300 10648 c-52 -20 -159 -26 -260 -16 -36 4 -32 -24 5 -34 17 -4
122 -12 233 -18 179 -8 207 -8 234 6 l31 16 -29 23 c-27 22 -103 46 -142 44
-9 0 -42 -10 -72 -21z"/>
<path d="M8276 10647 c-34 -34 -34 -79 -1 -112 20 -21 33 -25 88 -25 38 0 96
-10 145 -25 140 -41 181 -42 409 -9 18 3 54 21 79 41 44 33 51 35 100 29 42
-5 56 -3 70 11 12 12 33 18 62 18 58 0 66 20 17 41 -49 20 -87 15 -100 -13
-12 -28 -21 -28 -81 -2 -57 24 -80 20 -150 -25 -115 -76 -126 -79 -258 -73
-127 7 -266 39 -266 63 0 19 40 44 70 44 14 0 49 -7 78 -14 57 -15 82 -12 82
9 0 20 -71 40 -175 49 -22 2 -63 7 -92 11 -47 7 -54 5 -77 -18z"/>
<path d="M10112 10598 c-30 -19 -51 -39 -50 -47 3 -15 50 -23 133 -22 22 1 73
-13 117 -31 74 -30 81 -31 121 -19 66 20 127 21 149 2 21 -18 136 -50 186 -50
32 -1 32 -1 32 47 l0 47 -117 3 c-91 2 -121 6 -135 19 -16 15 -22 14 -77 -11
-32 -14 -70 -26 -84 -26 -24 0 -95 34 -107 51 -14 20 -85 69 -99 69 -9 0 -40
-15 -69 -32z"/>
<path d="M7517 10554 c-36 -16 -97 -29 -163 -36 -71 -8 -108 -17 -111 -26 -10
-26 11 -32 70 -22 54 10 341 -1 354 -13 21 -21 -230 -299 -507 -562 -100 -95
-363 -354 -920 -907 -230 -228 -372 -388 -480 -540 -18 -27 -36 -48 -39 -48
-3 0 -30 24 -61 54 -30 30 -89 81 -131 113 -163 124 -198 157 -194 180 8 34
-11 69 -44 83 -17 7 -31 14 -31 17 0 7 188 220 285 323 50 52 153 165 229 250
77 85 243 261 370 391 273 278 424 441 450 483 10 17 41 55 68 84 27 28 47 56
43 61 -3 6 52 10 132 11 144 1 179 3 188 11 11 12 -434 7 -510 -6 -44 -7 -129
-19 -190 -25 -151 -16 -231 -27 -365 -50 -202 -36 -263 -52 -345 -91 -139 -66
-232 -98 -314 -108 -77 -10 -209 -53 -322 -106 -51 -23 -52 -24 -28 -34 29
-10 141 9 187 33 15 8 61 24 102 36 65 20 316 115 405 154 57 25 308 76 515
105 74 11 164 24 199 30 36 6 66 9 68 7 6 -6 -51 -81 -150 -198 -56 -66 -131
-157 -167 -203 -64 -82 -139 -172 -255 -309 -33 -39 -114 -141 -180 -226 -65
-85 -142 -183 -170 -216 -27 -34 -69 -86 -92 -115 -24 -30 -62 -77 -85 -105
-24 -29 -54 -70 -68 -93 -21 -37 -28 -41 -63 -41 -68 0 -95 -22 -121 -102 -3
-10 -15 -18 -28 -18 -104 0 -287 -138 -354 -266 -17 -32 -58 -103 -92 -156
-35 -54 -73 -118 -85 -142 -41 -80 -417 -409 -499 -435 -51 -17 -91 -50 -79
-65 7 -8 -71 -87 -266 -271 -152 -143 -313 -296 -358 -340 -44 -44 -132 -125
-195 -180 -239 -209 -527 -496 -537 -534 -10 -40 16 -74 67 -87 25 -7 76 -28
113 -48 38 -20 74 -36 80 -36 7 0 21 -16 31 -35 11 -19 65 -82 120 -140 133
-137 188 -165 324 -165 l92 0 292 293 c160 160 376 387 480 502 389 433 696
760 704 752 2 -1 -7 -38 -20 -82 -28 -99 -91 -244 -117 -268 -34 -32 -15 -83
28 -75 25 5 73 80 106 168 49 128 84 195 132 255 26 31 48 67 50 79 1 11 5 48
9 81 l7 61 145 154 c80 85 201 219 270 297 114 129 128 141 146 130 16 -10 22
-9 38 11 10 12 28 22 39 22 11 0 26 9 33 20 7 11 19 20 27 20 9 0 5 11 -13 35
l-27 35 67 87 c189 245 443 515 769 815 94 86 218 206 277 267 59 60 170 164
245 229 272 237 633 621 633 675 0 5 10 17 23 28 l22 18 -25 2 c-14 1 -30 1
-35 0 -6 0 -50 5 -99 12 l-89 13 42 19 c40 18 50 38 20 41 -8 1 -40 -9 -72
-22z m-968 -254 c-79 -83 -169 -179 -199 -214 -30 -35 -212 -220 -405 -412
-356 -356 -354 -354 -159 -112 83 104 366 439 410 488 87 95 275 322 286 346
8 17 24 26 62 33 166 33 166 39 5 -129z m-1345 -1531 c-9 -10 -21 -16 -26 -13
-5 3 -2 14 8 25 9 10 21 16 26 13 5 -3 2 -14 -8 -25z m-134 -43 c0 -10 -383
-386 -388 -381 -3 2 7 23 22 45 14 22 37 64 50 92 12 29 35 68 51 86 46 55
138 120 201 141 68 23 64 22 64 17z m168 -58 c16 -18 74 -82 128 -141 55 -59
129 -130 165 -158 70 -52 95 -76 87 -84 -10 -10 -174 124 -243 196 -92 98
-185 205 -185 213 0 15 21 4 48 -26z m-98 -49 c32 -70 32 -72 21 -138 -7 -36
-16 -94 -21 -129 -7 -43 -22 -82 -50 -128 -22 -36 -60 -113 -85 -170 -40 -92
-49 -124 -70 -272 -14 -92 -25 -190 -25 -217 0 -50 -1 -52 -76 -125 -98 -97
-416 -444 -474 -519 -146 -186 -925 -1001 -958 -1001 -7 0 -30 9 -50 20 -20
11 -76 34 -124 51 -120 42 -289 154 -329 217 -30 48 -53 113 -47 137 4 16 373
410 563 600 77 77 235 241 350 365 240 257 632 667 874 915 395 404 455 465
462 465 3 0 21 -32 39 -71z m259 -16 c53 -49 136 -116 184 -150 83 -60 107
-86 93 -100 -3 -4 -28 4 -55 16 -32 16 -96 70 -190 161 -123 120 -157 160
-135 160 3 0 49 -39 103 -87z m112 -279 l89 -66 -61 -72 c-34 -39 -150 -167
-258 -284 l-196 -214 -3 84 c-3 97 19 184 88 338 65 146 99 255 106 343 l7 79
70 -71 c38 -39 109 -101 158 -137z m-430 -243 c-32 -76 -51 -193 -51 -322 0
-115 0 -115 -30 -144 l-30 -29 0 57 c0 32 7 115 16 185 14 111 21 139 60 221
45 96 74 122 35 32z m-737 -102 c-46 -48 -229 -194 -189 -151 14 15 209 180
214 181 3 1 -8 -13 -25 -30z m-274 -269 c0 -4 -104 -111 -231 -237 -127 -125
-258 -262 -292 -303 -33 -41 -90 -107 -126 -146 -36 -39 -113 -126 -171 -194
-139 -164 -399 -438 -423 -446 -15 -5 -17 -11 -12 -32 4 -15 11 -42 15 -60 l8
-32 -37 29 c-56 44 -100 63 -137 59 -26 -3 -35 1 -43 19 -9 19 -4 31 34 80 52
68 313 320 446 430 52 42 157 138 234 213 77 74 209 198 293 275 84 77 204
187 266 245 89 82 120 105 145 107 17 1 31 -2 31 -7z m943 -172 c-4 -24 -17
-59 -31 -78 l-24 -35 7 55 c4 35 14 63 27 78 12 12 23 22 24 22 1 0 0 -19 -3
-42z"/>
<path d="M7860 10569 c-14 -6 -57 -9 -98 -6 -69 4 -95 -4 -76 -23 5 -5 57 -17
117 -26 59 -10 107 -21 107 -24 0 -4 -24 -42 -53 -86 -60 -89 -227 -356 -247
-394 -7 -14 -66 -106 -130 -205 -124 -190 -211 -339 -303 -520 -31 -60 -119
-207 -197 -325 -77 -118 -172 -269 -212 -335 -39 -66 -114 -192 -166 -280 -53
-88 -130 -214 -173 -280 -96 -150 -432 -708 -526 -875 -39 -69 -97 -170 -128
-225 -138 -239 -221 -388 -282 -505 -36 -69 -78 -147 -93 -175 -15 -27 -65
-122 -110 -210 -221 -426 -409 -765 -499 -895 -65 -94 -241 -286 -264 -287 -7
-1 -27 -6 -44 -11 -31 -10 -33 -9 -33 14 0 35 -62 98 -199 204 -64 49 -152
119 -196 156 -161 132 -516 353 -816 507 -321 165 -397 203 -454 226 -33 13
-100 42 -150 63 -176 77 -341 117 -347 83 -1 -5 38 -18 87 -28 76 -16 279 -91
460 -170 28 -12 141 -72 252 -134 112 -62 205 -113 207 -113 3 0 80 -46 173
-101 92 -56 194 -117 226 -136 111 -66 233 -150 287 -199 30 -28 98 -85 150
-129 52 -43 120 -102 150 -129 55 -50 122 -128 116 -133 -5 -5 -135 26 -206
49 -111 36 -753 359 -950 478 -102 61 -234 139 -295 173 -157 87 -417 259
-478 315 -29 27 -100 81 -158 120 -154 104 -149 96 -107 189 19 43 45 105 58
138 140 360 289 668 437 902 217 342 232 371 413 753 140 296 122 260 190 380
92 164 161 282 224 385 34 55 81 139 104 188 25 50 49 87 57 87 8 0 15 4 15 9
0 13 -35 20 -52 10 -8 -4 -72 -13 -144 -19 -137 -12 -291 -52 -301 -77 -3 -8
1 -21 10 -30 13 -14 23 -13 94 10 98 33 323 86 323 77 0 -13 -86 -166 -142
-250 -30 -47 -61 -96 -68 -110 -18 -34 -88 -143 -170 -265 -37 -55 -135 -233
-219 -397 -97 -189 -189 -352 -254 -451 -231 -352 -327 -516 -402 -690 -29
-67 -77 -179 -109 -249 -31 -70 -56 -129 -56 -132 0 -3 -20 -50 -44 -104 -24
-54 -47 -119 -51 -145 -4 -28 -13 -47 -20 -47 -22 0 -38 -28 -31 -55 9 -35 97
-121 186 -180 41 -27 120 -84 175 -125 122 -92 235 -163 465 -290 96 -53 252
-141 345 -195 179 -104 823 -425 895 -446 23 -7 44 -19 47 -26 9 -22 68 -53
124 -63 67 -13 136 2 194 41 64 44 246 235 327 344 121 163 175 258 603 1055
120 223 266 486 325 585 59 99 153 259 210 355 115 196 308 510 506 825 72
116 185 305 251 420 66 116 182 311 259 435 175 281 168 269 249 425 102 195
188 343 300 515 56 85 122 189 147 230 72 118 180 288 236 371 29 42 52 80 52
86 0 6 39 8 105 5 68 -3 105 -1 105 6 0 5 -12 13 -27 16 -16 4 -42 24 -59 44
-32 37 -33 37 -115 39 -46 2 -95 -2 -109 -8z"/>
<path d="M32 10469 c-17 -5 -32 -15 -32 -22 0 -9 24 -12 88 -12 l88 0 56 -48
c31 -26 80 -56 108 -66 29 -10 56 -24 60 -31 5 -9 9 -9 14 -1 11 17 -1 29 -55
56 -27 14 -74 48 -104 75 -33 30 -65 50 -79 50 -13 0 -43 2 -67 5 -24 2 -59 0
-77 -6z"/>
<path d="M9082 10388 c-7 -30 -12 -33 -50 -36 -37 -3 -42 -1 -42 17 0 14 -6
21 -18 21 -44 0 -57 -58 -20 -84 31 -22 67 -20 107 7 19 12 46 29 60 38 37 22
36 63 -1 67 -23 3 -28 -1 -36 -30z"/>
<path d="M9116 10291 c-4 -5 -2 -12 3 -15 5 -4 12 -2 15 3 4 5 2 12 -3 15 -5
4 -12 2 -15 -3z"/>
<path d="M1715 10240 c-3 -5 -31 -10 -61 -10 -39 0 -68 -7 -102 -25 -26 -14
-55 -25 -64 -25 -10 0 -18 -4 -18 -10 0 -15 23 -12 75 11 67 29 173 32 197 4
10 -11 17 -25 18 -31 0 -6 7 -17 15 -24 13 -10 26 -6 77 29 33 22 70 41 80 41
27 0 17 24 -10 28 -12 2 -37 -6 -55 -17 l-34 -21 -22 30 c-17 23 -29 30 -56
30 -18 0 -37 -4 -40 -10z"/>
<path d="M1974 10206 c-11 -28 1 -51 25 -51 32 0 49 28 32 49 -17 20 -50 21
-57 2z"/>
<path d="M2259 10183 c-20 -52 7 -220 38 -230 8 -3 7 13 -4 54 -14 52 -14 83
-1 177 5 31 -21 30 -33 -1z"/>
<path d="M5070 10180 c-30 -10 -100 -35 -155 -55 -176 -65 -208 -75 -230 -75
-29 0 -143 -40 -238 -84 -74 -34 -111 -43 -327 -76 -85 -14 -477 -159 -451
-168 20 -7 176 30 291 68 63 21 144 44 180 50 178 32 256 54 353 100 56 27
125 54 152 61 80 18 210 63 355 123 74 31 136 56 138 56 1 0 2 5 2 10 0 13 -5
12 -70 -10z"/>
<path d="M1287 10152 c-24 -26 -23 -104 1 -125 25 -23 68 -21 99 3 19 15 30
17 44 9 10 -5 19 -16 19 -24 0 -20 32 -35 59 -28 14 4 29 -1 44 -15 26 -24
104 -55 118 -46 6 3 -11 24 -35 46 -27 23 -49 53 -54 71 -12 45 -45 49 -67 8
-8 -17 -17 -31 -19 -31 -2 0 -1 23 2 50 4 45 3 50 -16 50 -11 0 -23 -8 -26
-17 -5 -15 -17 -18 -63 -18 -58 0 -58 0 -59 31 -1 53 -19 67 -47 36z"/>
<path d="M2356 10133 c-14 -14 -5 -51 15 -65 l22 -14 -21 -40 c-11 -22 -23
-60 -27 -84 -5 -38 -3 -50 15 -73 26 -33 40 -35 40 -4 0 13 9 59 20 102 28
109 27 135 -5 135 -18 0 -25 5 -25 19 0 19 -23 35 -34 24z"/>
<path d="M525 10081 c-16 -4 -49 -17 -72 -29 -23 -12 -59 -22 -81 -22 -21 0
-63 -7 -94 -15 -40 -10 -81 -13 -135 -8 -61 4 -81 3 -90 -9 -10 -11 -5 -19 29
-41 75 -49 105 -46 218 18 25 14 61 25 80 25 19 0 56 11 82 25 74 39 136 42
224 8 8 -3 14 -1 14 3 0 11 -73 41 -115 47 -16 3 -43 2 -60 -2z"/>
<path d="M3860 10008 c-47 -22 -105 -52 -130 -68 -26 -17 -77 -36 -119 -45
-40 -8 -76 -17 -80 -20 -27 -16 -401 -81 -551 -95 -304 -29 -309 -28 -363 36
-30 35 -77 54 -139 54 -31 0 -38 -4 -38 -20 0 -11 5 -20 11 -20 5 0 7 5 3 11
-4 8 4 9 27 4 86 -17 108 -26 114 -46 13 -39 63 -59 150 -59 108 0 417 37 540
65 93 22 98 22 77 4 -13 -10 -39 -21 -58 -25 -45 -8 -47 -36 -1 -28 177 28
333 80 431 144 39 26 101 61 137 78 66 32 97 56 82 65 -4 2 -46 -13 -93 -35z"/>
<path d="M1441 9934 c-17 -12 -21 -22 -17 -40 4 -13 2 -24 -3 -24 -6 0 -15 -9
-21 -20 -17 -31 15 -94 74 -145 58 -51 72 -55 78 -21 7 33 -13 75 -51 110 -29
28 -30 31 -15 47 10 11 14 27 11 40 -5 19 -3 21 24 15 39 -7 37 9 -3 34 -40
24 -47 24 -77 4z"/>
<path d="M755 9698 c-14 -34 15 -88 63 -119 25 -16 53 -29 62 -29 9 0 33 -23
54 -51 40 -55 61 -59 61 -13 0 16 3 31 7 34 9 7 14 98 5 106 -15 15 -37 -7
-37 -38 l-1 -33 -20 28 c-24 31 -44 35 -58 10 -10 -16 -15 -13 -53 27 -24 25
-51 56 -60 70 -14 22 -17 23 -23 8z"/>
<path d="M1548 9543 c-3 -5 -2 -42 1 -83 l6 -75 43 -22 c49 -26 58 -24 65 13
5 29 -19 46 -33 24 -17 -27 -40 9 -40 62 0 50 -13 88 -30 88 -5 0 -10 -3 -12
-7z"/>
<path d="M258 9490 c33 -30 67 -36 177 -30 51 2 251 -77 268 -107 5 -8 37 -28
72 -44 51 -24 77 -29 137 -29 53 0 85 -6 118 -22 25 -11 77 -31 115 -43 l70
-22 -80 -12 c-44 -7 -154 -15 -244 -18 -120 -4 -159 -9 -145 -16 50 -28 627
-13 774 19 36 8 94 28 130 44 36 16 110 38 165 50 292 62 354 76 510 120 94
27 185 52 203 55 46 9 40 25 -10 25 -38 0 -142 -29 -266 -74 -23 -9 -106 -27
-185 -41 -185 -34 -348 -72 -411 -97 -28 -11 -100 -25 -161 -32 -110 -13 -110
-13 -142 11 -20 16 -54 27 -95 33 -83 12 -196 36 -231 49 -16 6 -61 11 -101
11 -84 0 -136 18 -181 60 -59 57 -247 120 -288 98 -26 -13 -104 -3 -163 22
-64 28 -75 24 -36 -10z"/>
<path d="M0 9430 c0 -5 5 -10 11 -10 5 0 7 5 4 10 -3 6 -8 10 -11 10 -2 0 -4
-4 -4 -10z"/>
<path d="M47 9434 c-12 -12 13 -33 49 -40 28 -5 34 -11 34 -31 0 -34 39 -66
104 -86 30 -10 63 -28 74 -41 24 -32 81 -66 109 -66 24 0 46 30 38 52 -7 17
-170 96 -215 105 -45 8 -56 17 -64 53 -3 20 -14 34 -30 40 -38 14 -91 22 -99
14z"/>
<path d="M2745 9335 c-55 -12 -139 -34 -188 -48 -48 -15 -128 -33 -177 -42
-50 -9 -103 -20 -118 -26 -29 -11 -167 -41 -302 -65 -47 -8 -156 -28 -243 -45
-126 -23 -188 -29 -295 -29 -76 0 -155 -5 -177 -11 -22 -6 -182 -13 -355 -16
-315 -5 -381 -10 -387 -29 -5 -14 505 -6 663 11 106 12 160 12 278 3 125 -9
165 -8 278 7 156 20 284 46 388 79 166 53 249 76 330 91 94 17 403 119 408
135 2 6 2 9 0 9 -1 -1 -48 -12 -103 -24z"/>
<path d="M2795 9274 c-27 -8 -104 -27 -170 -44 -67 -16 -139 -37 -160 -46 -22
-9 -101 -33 -175 -53 -103 -27 -136 -40 -138 -53 -5 -24 30 -24 127 1 159 41
212 51 260 51 92 0 205 21 294 56 49 19 119 38 155 44 99 15 112 19 112 34 0
28 -216 36 -305 10z"/>
<path d="M3065 9188 c-38 -10 -108 -31 -155 -45 -47 -15 -89 -26 -94 -24 -11
3 -198 -29 -209 -36 -4 -3 -67 -20 -140 -38 -101 -25 -133 -37 -136 -51 -3
-15 3 -16 45 -11 27 3 90 20 139 37 152 53 195 63 211 49 40 -33 260 20 378
91 87 53 77 60 -39 28z"/>
<path d="M2930 8992 c-25 -15 -72 -38 -105 -51 -33 -12 -70 -27 -82 -32 -30
-11 -39 -53 -19 -84 20 -30 47 -32 117 -9 46 15 53 15 87 1 81 -34 277 -40
345 -11 49 22 47 33 -5 27 -24 -3 -99 0 -167 6 -96 8 -127 14 -134 26 -5 9
-20 20 -34 26 -37 14 -24 31 46 57 52 20 62 28 59 46 -5 33 -54 33 -108 -2z"/>
<path d="M1314 8966 c-9 -24 3 -46 24 -46 22 0 68 45 54 54 -5 3 -17 -3 -27
-14 -21 -23 -40 -26 -32 -5 4 8 2 17 -4 20 -5 4 -12 -1 -15 -9z"/>
<path d="M629 8944 c-10 -13 -10 -17 2 -25 34 -21 72 -1 49 26 -16 19 -34 19
-51 -1z m41 -10 c0 -2 -7 -4 -15 -4 -8 0 -15 4 -15 10 0 5 7 7 15 4 8 -4 15
-8 15 -10z"/>
<path d="M397 8913 c-3 -3 -3 -12 0 -20 4 -11 1 -14 -13 -11 -10 2 -18 10 -16
17 3 16 -20 9 -25 -6 -6 -16 41 -45 60 -38 19 8 28 52 11 59 -6 2 -14 2 -17
-1z"/>
<path d="M1407 6483 c-4 -3 -7 -18 -7 -33 0 -53 79 -92 110 -55 7 8 20 15 29
15 9 0 22 5 29 12 17 17 15 48 -3 48 -8 0 -15 -7 -15 -15 0 -11 -7 -14 -24 -9
-18 4 -25 1 -29 -15 -7 -28 -42 -27 -61 1 -21 30 -20 38 5 38 11 0 17 5 14 10
-7 11 -38 13 -48 3z"/>
<path d="M1880 6441 c-19 -5 -26 -14 -28 -39 -3 -26 1 -34 22 -43 20 -10 30
-9 51 5 29 19 32 46 7 69 -10 10 -20 17 -23 16 -2 -1 -15 -4 -29 -8z m43 -35
c7 -19 -1 -26 -30 -26 -16 0 -23 6 -23 20 0 14 7 20 24 20 13 0 26 -6 29 -14z"/>
<path d="M2425 6200 c3 -5 15 -10 25 -10 11 0 39 -9 62 -19 24 -10 66 -28 93
-39 290 -120 533 -240 673 -335 24 -16 45 -27 48 -24 7 6 -115 86 -231 150
-114 64 -261 131 -484 223 -148 61 -200 76 -186 54z"/>
<path d="M1601 6046 c-10 -12 -8 -19 8 -35 22 -22 56 -28 65 -12 9 14 -3 38
-22 45 -9 3 -22 8 -28 11 -6 3 -16 -1 -23 -9z m44 -26 c3 -5 2 -10 -4 -10 -5
0 -13 5 -16 10 -3 6 -2 10 4 10 5 0 13 -4 16 -10z"/>
<path d="M1940 5859 c-19 -34 -8 -62 30 -81 44 -22 70 -22 98 -2 18 12 22 24
20 50 -3 35 -22 48 -24 16 -3 -48 -5 -52 -29 -52 -41 0 -75 21 -75 47 0 14 6
23 15 23 8 0 15 5 15 10 0 18 -39 10 -50 -11z"/>
<path d="M1444 5831 c20 -23 4 -40 -20 -20 -19 16 -30 4 -14 -16 18 -21 57
-19 70 4 11 22 -10 51 -37 51 -14 0 -14 -2 1 -19z"/>
<path d="M1748 5759 c-26 -15 -22 -56 7 -75 34 -22 65 -10 65 24 -1 51 -34 74
-72 51z m50 -46 c4 -25 -16 -31 -36 -11 -20 20 -14 40 11 36 14 -2 23 -11 25
-25z"/>
<path d="M1950 5627 c0 -27 27 -44 44 -27 13 13 -4 44 -28 48 -11 3 -16 -4
-16 -21z"/>
<path d="M930 5597 c0 -9 -6 -18 -12 -21 -9 -3 -7 -9 6 -20 24 -20 27 -20 52
-2 15 12 17 18 8 33 -14 23 -54 30 -54 10z"/>
<path d="M2290 5545 c-23 -28 -1 -69 38 -73 36 -4 45 15 10 20 -27 4 -38 38
-13 38 20 0 14 24 -7 28 -8 2 -21 -4 -28 -13z"/>
<path d="M1289 5444 c-16 -20 -1 -48 29 -52 29 -4 41 37 16 55 -23 17 -29 16
-45 -3z m31 -24 c0 -5 -5 -10 -11 -10 -5 0 -7 5 -4 10 3 6 8 10 11 10 2 0 4
-4 4 -10z"/>
<path d="M1600 5441 c-14 -27 3 -61 31 -61 23 0 36 25 21 43 -6 6 -10 17 -11
22 0 19 -30 16 -41 -4z"/>
<path d="M2787 5301 c-21 -8 -57 -64 -57 -90 0 -25 34 -53 61 -49 32 4 37 28
5 28 -29 0 -45 19 -25 31 7 4 14 18 14 31 0 30 27 30 40 1 5 -13 13 -23 17
-23 14 0 19 20 8 40 -14 26 -41 39 -63 31z"/>
<path d="M1007 5283 c-14 -13 -7 -64 9 -70 23 -9 43 18 37 50 -5 26 -30 37
-46 20z m28 -33 c3 -5 1 -10 -4 -10 -6 0 -11 5 -11 10 0 6 2 10 4 10 3 0 8 -4
11 -10z"/>
<path d="M1414 5135 c-9 -22 14 -37 38 -24 19 10 25 29 9 29 -5 0 -16 3 -25 6
-10 4 -18 -1 -22 -11z"/>
</g>
</svg>
